<svg width="70" height="25" fill="none" xmlns="http://www.w3.org/2000/svg"><path d="M2.156 12.343l10.066 10.165 10.065-10.165L12.222 2.178 2.156 12.343zm2.948 4.432l-1.017-1.027L.72 12.345l3.368-3.403 1.017-1.027V5.156h2.73L12.22.726l3.368 3.403 1.017 1.027h2.73v2.759l1.017 1.027 3.368 3.403-3.368 3.403-1.017 1.027v2.76h-2.73l-1.017 1.026-3.368 3.403-3.369-3.403-1.017-1.027h-2.73v-2.759zM12.219 0L8.132 4.128H4.087v4.087L0 12.342l4.087 4.13v4.085h4.045l4.088 4.128 4.087-4.128h4.045V16.47l4.087-4.129-4.087-4.128V4.128h-4.045L12.219 0z" fill="#171A21"/><path d="M.717 12.341l4.385-4.429V5.154h2.73l4.386-4.43 4.384 4.43h2.731v2.759l4.386 4.428-4.385 4.43v2.758h-2.731l-4.385 4.43-4.385-4.43h-2.73V16.77L.716 12.341zm4.384 2.976c1.698-2.068 4.257-3.387 7.114-3.388 2.204 0 4.002-1.816 4.002-4.043 0-1.051-.4-2.012-1.056-2.733l-2.946-2.976-2.947 2.977L5.1 9.364 2.155 12.34 5.1 15.317zm14.232-5.951c-1.698 2.068-4.258 3.387-7.115 3.387-2.206 0-4.004 1.817-4.004 4.044a4.05 4.05 0 001.057 2.732H9.27l2.948 2.977 2.947-2.977 4.168-4.21 2.948-2.976-2.948-2.977z" fill="#fff"/><path d="M37.43 20.558h-2.033l3.862-7.804h2.033l3.863 7.804h-2.033l-.61-1.233H38.04l-.61 1.233zm-12.606-7.804h7.827a1.928 1.928 0 011.365.573c.361.366.566.86.567 1.378a1.966 1.966 0 01-.567 1.378 1.927 1.927 0 01-1.364.573 1.928 1.928 0 011.364.573c.361.365.566.86.567 1.378a1.966 1.966 0 01-.567 1.378 1.928 1.928 0 01-1.364.573h-7.828v-7.804zm0-8.625h2.034v3.286h5.692V4.129h2.033v7.803H32.55V8.647h-5.692v3.285h-2.034V4.13zM42.512 10.7H38.04l-.61 1.231h-2.032l3.862-7.803h2.033l3.863 7.803h-2.033l-.61-1.232zM38.65 9.471h3.253l-1.626-3.29-1.627 3.29zm7.32-5.343H48V10.7h5.693v1.231h-7.726V4.13zm10.574 7.803H54.51V8.647l-3.864-4.518h2.033l2.848 3.286 2.847-3.286h2.034l-3.864 4.518v3.285zm4.47-7.803h2.034v3.286l4.475-3.286h2.237L64.511 8.03l5.248 3.901h-2.237l-4.475-3.285v3.285h-2.034V4.13zm4.27 16.429h-2.237l-4.473-3.286v3.286H56.54v-7.804h2.033v3.286l4.474-3.286h2.235l-5.245 3.902 5.245 3.902zm-19.315-7.804h2.033l5.693 5.75v-5.75h2.033v7.804h-2.033L48 14.808v5.75h-2.033v-7.804zm-19.11 1.232v2.054h4.676c.269-.001.527-.11.717-.302a1.029 1.029 0 00-.717-1.752h-4.676zm0 3.286v2.058h4.676c.27-.001.528-.11.718-.303a1.035 1.035 0 000-1.452 1.016 1.016 0 00-.718-.303h-4.676zm15.044.825l-1.626-3.29-1.627 3.29h3.253z" fill="#171A21"/></svg>